<svg width="431" height="934" viewBox="0 0 431 934" fill="none" xmlns="http://www.w3.org/2000/svg">
<g clip-path="url(#clip0_89_980)">
<path d="M400.5 0.5H30.5C13.9315 0.5 0.5 13.9315 0.5 30.5V902.5C0.5 919.069 13.9315 932.5 30.5 932.5H400.5C417.069 932.5 430.5 919.069 430.5 902.5V30.5C430.5 13.9315 417.069 0.5 400.5 0.5Z" fill="#93A1CA"/>
<path d="M207 0L215 136L211 277V406C211 406 211 470 207 508L194 660L182 794L177 895L172 933L25 932C25 932 0 929 0 902V687C0 687 137.5 690.5 174.5 519.5C174.5 519.5 199.5 404.5 187.5 267.5C187.5 267.5 181.5 155.5 183.5 98.5L182.5 0.5L207 0Z" fill="#B5B4D9"/>
<path d="M284.116 933L268.191 686.753L268.191 450.394C268.191 450.394 254.261 316.572 268.191 263.476C268.191 263.476 287.345 150.81 362.218 128.794C362.218 128.794 400.525 114.549 430.997 122.319V900.625C430.997 900.625 431.867 931.705 404.878 933H284.116Z" fill="#ADA8CC"/>
</g>
<defs>
<clipPath id="clip0_89_980">
<rect width="430.5" height="933.5" fill="white"/>
</clipPath>
</defs>
</svg>
