<svg width="433" height="934" viewBox="0 0 433 934" fill="none" xmlns="http://www.w3.org/2000/svg">
<g clip-path="url(#clip0_89_996)">
<path d="M402.61 932.53H32.61C16.0415 932.53 2.61 919.099 2.61 902.53V30.5303C2.61 13.9617 16.0415 0.530273 32.61 0.530273H402.61C419.179 0.530273 432.61 13.9617 432.61 30.5303V902.53C432.61 919.099 419.179 932.53 402.61 932.53Z" fill="#928DA9"/>
<path opacity="0.36" d="M209.892 933.5C252.95 909.591 289.48 867.912 312.324 816.627C334.158 767.616 343.295 711.659 351.793 656.634C359.86 604.317 367.638 551.516 366.958 498.255C366.609 471.004 363.939 443.342 355.142 418.389C343.595 385.62 322.431 359.822 301.407 335.391C259.108 286.244 214.991 238.737 164.854 202.761C114.718 166.786 57.894 142.641 0 143.523L2.09942 895.636C2.09942 895.636 4.09887 930.431 32.0911 931.673L209.892 933.5Z" fill="#93A1CA"/>
<path opacity="0.36" d="M217.262 0.52301H32.0569C32.0569 0.52301 1.0226 3.43948 2.02371 29.6876L3.02482 96.766L2.02371 243.036C14.5375 255.071 82.6128 280.843 82.6128 280.843C201.744 324.677 273.824 314.469 273.824 314.469C418.985 295.25 433 249.015 433 249.015L432.499 29.6876C432.499 29.6876 436.504 -0.449127 402.466 0.52301H217.262Z" fill="#ADA8CC"/>
</g>
<defs>
<clipPath id="clip0_89_996">
<rect width="432.61" height="933.5" fill="white" transform="matrix(1 0 0 -1 0 933.5)"/>
</clipPath>
</defs>
</svg>
