<svg width="431" height="933" viewBox="0 0 431 933" fill="none" xmlns="http://www.w3.org/2000/svg">
<g clip-path="url(#clip0_89_1000)">
<path d="M400.52 0H30.52C13.9515 0 0.52002 13.4315 0.52002 30V902C0.52002 918.569 13.9515 932 30.52 932H400.52C417.089 932 430.52 918.569 430.52 902V30C430.52 13.4315 417.089 0 400.52 0Z" fill="#93A1CA"/>
<path opacity="0.52" d="M429.18 417.54C429.18 417.54 255.03 399.5 202.03 465.5L88.03 602.5C88.03 602.5 -0.980008 721.6 0.0199916 727.55C1.01999 733.5 0.0199916 902.5 0.0199916 902.5C0.0199916 902.5 -1.98001 933.5 30.02 932.5H400.02C400.02 932.5 431.02 934.5 430.02 902.5L429.17 417.54H429.18Z" fill="#ADA8CC"/>
<path opacity="0.31" d="M109.16 0C109.16 0 11.02 84.61 0.0200195 136.05V442.26C0.0200195 442.26 78.02 575.5 199.02 611.5C199.02 611.5 354.34 642.23 428.68 643.87L430.02 30.5C430.02 30.5 432.02 1.5 400.02 0.5L109.16 0Z" fill="#6973C7"/>
</g>
<defs>
<clipPath id="clip0_89_1000">
<rect width="430.52" height="932.52" fill="white"/>
</clipPath>
</defs>
</svg>
