<svg width="433" height="934" viewBox="0 0 433 934" fill="none" xmlns="http://www.w3.org/2000/svg">
<g clip-path="url(#clip0_89_992)">
<path d="M402.61 0.969727H32.61C16.0414 0.969727 2.60999 14.4012 2.60999 30.9697V902.97C2.60999 919.538 16.0414 932.97 32.61 932.97H402.61C419.179 932.97 432.61 919.538 432.61 902.97V30.9697C432.61 14.4012 419.179 0.969727 402.61 0.969727Z" fill="#928DA9"/>
<path opacity="0.36" d="M209.892 0C252.95 23.9089 289.48 65.588 312.324 116.873C334.158 165.884 343.295 221.841 351.793 276.866C359.86 329.183 367.638 381.984 366.958 435.245C366.609 462.496 363.939 490.158 355.142 515.111C343.595 547.88 322.431 573.678 301.407 598.109C259.108 647.256 214.991 694.763 164.854 730.739C114.718 766.714 57.894 790.859 0 789.977L2.09942 37.8641C2.09942 37.8641 4.09887 3.06939 32.0911 1.82672L209.892 0Z" fill="#93A1CA"/>
<path opacity="0.36" d="M217.262 932.977H32.0569C32.0569 932.977 1.0226 930.061 2.02371 903.812L3.02482 836.734L2.02371 690.464C14.5375 678.429 82.6128 652.657 82.6128 652.657C201.744 608.823 273.824 619.031 273.824 619.031C418.985 638.25 433 684.485 433 684.485L432.499 903.812C432.499 903.812 436.504 933.949 402.466 932.977H217.262Z" fill="#6973C7" fill-opacity="0.72"/>
</g>
<defs>
<clipPath id="clip0_89_992">
<rect width="432.61" height="933.5" fill="white"/>
</clipPath>
</defs>
</svg>
