<svg width="431" height="933" viewBox="0 0 431 933" fill="none" xmlns="http://www.w3.org/2000/svg">
<g clip-path="url(#clip0_89_984)">
<path d="M401 0H31C14.4315 0 1 13.4315 1 30V902C1 918.569 14.4315 932 31 932H401C417.569 932 431 918.569 431 902V30C431 13.4315 417.569 0 401 0Z" fill="#707DA5"/>
<path opacity="0.57" d="M0 604C30 607 62 599 62 599C130 593 230 518 230 518C280 481 289 418 289 418L309 321L336 175C343 144 357 0.9997 357 0.9997H31C31 0.9997 6 -1.0003 1 32.9997V257L0 604Z" fill="#ADA8CC"/>
<path opacity="0.66" d="M0 340C180 282 210 284 210 284L263 291C371 311 430 378 430 378V905C430 905 431.89 932.05 395.94 932.03L29 933C29 933 9 933 0 905V340Z" fill="#B5B4D9"/>
</g>
<defs>
<clipPath id="clip0_89_984">
<rect width="431" height="933" fill="white"/>
</clipPath>
</defs>
</svg>
